<svg xmlns="http://www.w3.org/2000/svg" version="1.1" viewBox="-5.0 -10.0 110.0 135.0">
 <path d="m92.938 44.961c-0.11719-0.98828-0.72656-1.8516-1.6172-2.2891-0.89453-0.4375-1.9492-0.39453-2.8008 0.11719-1.9805 1.1992-4.3828 1.4844-6.5898 0.78125-2.207-0.70312-4.0039-2.3281-4.9258-4.4492-0.31641-0.72266-0.90625-1.2852-1.6406-1.5625-0.73438-0.28125-1.5508-0.25391-2.2656 0.074218-3.0625 1.4102-6.6758 0.76563-9.0586-1.6172-2.3867-2.3867-3.0312-6-1.6211-9.0625 0.32812-0.71484 0.35547-1.5273 0.074219-2.2617-0.27734-0.73438-0.83984-1.3281-1.5586-1.6406-2.125-0.92578-3.7461-2.7188-4.4492-4.9258-0.70703-2.207-0.42188-4.6133 0.77734-6.5938 0.51172-0.85156 0.55469-1.9062 0.11719-2.8008-0.4375-0.89062-1.3008-1.5-2.2891-1.6172-12.438-1.4766-24.906 2.5156-34.176 10.941-9.2695 8.4297-14.426 20.465-14.137 32.988 0.27344 11.922 5.2891 22.926 14.125 30.984 8.1602 7.4453 18.629 11.164 29.102 11.164s20.949-3.7227 29.109-11.168c10.297-9.418 15.441-23.207 13.824-37.062zm-17.773 32.73c-14.105 12.871-36.207 12.871-50.312 0.003906-7.4805-6.8008-11.887-16.344-12.211-26.449-0.32422-10.109 3.4609-19.914 10.488-27.184 7.0312-7.2695 16.703-11.379 26.816-11.395 0.21094 0 0.41797 0 0.62891 0.003906v0.003906c-1.0312 4.6406 0.38281 9.4844 3.75 12.84 0.57812 0.58203 1.207 1.1094 1.8828 1.5742-1.1289 4.6992 0.26953 9.6484 3.6875 13.066s8.3633 4.8125 13.066 3.6875c0.46484 0.67578 0.99219 1.3047 1.5742 1.8828 3.3555 3.3633 8.1953 4.7773 12.836 3.75 0.14453 10.719-4.2969 20.984-12.207 28.215z"/>
 <path d="m48.727 39.758c0-5.0352-3.0352-9.5742-7.6875-11.504-4.6523-1.9258-10.008-0.85938-13.57 2.6992-3.5586 3.5625-4.625 8.918-2.6992 13.57 1.9297 4.6523 6.4688 7.6875 11.504 7.6875 6.875-0.007813 12.445-5.5781 12.453-12.453zm-19.043 0c0-2.6641 1.6055-5.0703 4.0664-6.0898 2.4648-1.0195 5.3008-0.45703 7.1836 1.4297 1.8867 1.8867 2.4492 4.7188 1.4297 7.1836s-3.4219 4.0703-6.0898 4.0703c-3.6367-0.003906-6.5859-2.9531-6.5898-6.5938z"/>
 <path d="m68.004 49.043c-3.8516 0-7.3203 2.3203-8.7969 5.8789-1.4727 3.5586-0.65625 7.6523 2.0664 10.375 2.7227 2.7227 6.8164 3.5391 10.375 2.0664 3.5586-1.4766 5.8789-4.9453 5.8789-8.7969-0.007813-5.2578-4.2656-9.5156-9.5234-9.5234zm0 13.184c-1.4805 0-2.8164-0.89062-3.3828-2.2578-0.56641-1.3711-0.25391-2.9453 0.79297-3.9922 1.0508-1.0469 2.625-1.3594 3.9922-0.79297s2.2617 1.9023 2.2617 3.3828c-0.003907 2.0195-1.6406 3.6602-3.6641 3.6602z"/>
 <path d="m43.531 59.895c-3.8516 0-7.3242 2.3203-8.7969 5.8789-1.4766 3.5586-0.66016 7.6523 2.0625 10.375 2.7227 2.7227 6.8164 3.5391 10.375 2.0625 3.5586-1.4727 5.8789-4.9453 5.8789-8.793v-0.003907c-0.007812-5.2539-4.2656-9.5117-9.5195-9.5195zm0 13.184c-1.4844 0-2.8203-0.89062-3.3867-2.2617-0.56641-1.3672-0.25391-2.9414 0.79688-3.9883 1.0469-1.0508 2.6211-1.3633 3.9883-0.79688 1.3711 0.56641 2.2617 1.9023 2.2617 3.3828-0.003906 2.0234-1.6406 3.6602-3.6602 3.6641z"/>
</svg>