<svg xmlns="http://www.w3.org/2000/svg" viewBox="0 0 631.5 312.51">
  <defs>
    <style>
      .cls-1 {
        fill: #fff;
      }
    </style>
  </defs>
  <g id="Layer_1" data-name="Layer 1">
    <g>
      <path class="cls-1" d="M33.94,79.75a28.78,28.78,0,0,1-21.15-8.59A22.7,22.7,0,0,1,6.4,59.37q-1.32-6.61-1.32-19.5T6.4,20.38A22.25,22.25,0,0,1,12.79,8.59,28.74,28.74,0,0,1,33.94,0C49,0,60.15,8.81,62.8,24.78H47.27c-1.65-6.72-5.84-11.12-13.22-11.12-4.19,0-7.49,1.32-9.8,4.07-3.2,3.42-3.86,6.94-3.86,22.14S21.05,58.6,24.25,62c2.31,2.76,5.61,4.08,9.8,4.08,7.38,0,11.57-4.41,13.22-11.13H62.8C60.15,70.94,48.92,79.75,33.94,79.75Z"/>
      <path class="cls-1" d="M119.42,71.16a28.36,28.36,0,0,1-21.14,8.59c-8.93,0-15.76-3.09-21.26-8.59-7.93-7.94-7.71-17.74-7.71-31.29S69.09,16.52,77,8.59C82.52,3.09,89.35,0,98.28,0a28.36,28.36,0,0,1,21.14,8.59c7.93,7.93,7.83,17.74,7.83,31.28S127.35,63.22,119.42,71.16ZM108.08,17.84a12.73,12.73,0,0,0-9.8-4.18,13,13,0,0,0-9.92,4.18c-3,3.31-3.74,6.94-3.74,22s.77,18.73,3.74,22a13,13,0,0,0,9.92,4.19,12.71,12.71,0,0,0,9.8-4.19c3-3.3,3.85-6.94,3.85-22S111.05,21.15,108.08,17.84Z"/>
      <path class="cls-1" d="M193.18,79.08V33.38l-15,29.73H167.84L152.75,33.38v45.7H137.44V.66h15.09L173,43.07,193.4.66h15.09V79.08Z"/>
      <path class="cls-1" d="M251.47,49.57H236.38V79.08H221.07V.66h30.4c16.19,0,25.88,11.13,25.88,24.45S267.66,49.57,251.47,49.57Zm-.77-35.25H236.38V35.8H250.7c6.94,0,11.34-4.3,11.34-10.69S257.64,14.32,250.7,14.32Z"/>
      <path class="cls-1" d="M285,79.08V.66h15.31V65.43h35.58V79.08Z"/>
      <path class="cls-1" d="M343.32,79.08V.66H395V14.32H358.63V32.71h30.95V46.37H358.63V65.43H395V79.08Z"/>
      <path class="cls-1" d="M436.7,14.32V79.08H421.39V14.32H400.9V.66h56.29V14.32Z"/>
      <path class="cls-1" d="M464.6,79.08V.66h51.66V14.32H479.91V32.71h31V46.37h-31V65.43h36.35V79.08Z"/>
      <path class="cls-1" d="M525.68,79.08V.66H541V65.43h35.58V79.08Z"/>
      <path class="cls-1" d="M605.77,46.92V79.08h-15.2V46.92L567,.66h16.63l14.65,31.61L612.71.66h16.63Z"/>
      <rect class="cls-1" x="6.51" y="88.76" width="599.5" height="4.78"/>
      <path class="cls-1" d="M35.37,196.38c-16.08,0-28.86-10.9-28.86-27.53V117.3H21.82v51c0,9,5.29,14.43,13.55,14.43S49,177.33,49,168.3v-51h15.2v51.55C64.23,185.48,51.45,196.38,35.37,196.38Z"/>
      <path class="cls-1" d="M97.55,196.38c-11.9,0-20.93-2.53-28.64-10.35l9.91-9.91c5,4.95,11.68,6.61,19,6.61,9,0,13.88-3.42,13.88-9.7a8.72,8.72,0,0,0-2.42-6.6c-1.55-1.44-3.31-2.21-6.94-2.76l-9.48-1.32c-6.72-1-11.67-3.09-15.2-6.5C73.87,152.1,72,147,72,140.43c0-14,10.36-23.79,27.32-23.79,10.79,0,18.62,2.64,25.33,9.14L115,135.36c-5-4.73-10.9-5.39-16.08-5.39-8.15,0-12.11,4.51-12.11,9.91a7.56,7.56,0,0,0,2.31,5.62,13.47,13.47,0,0,0,7.27,3.08l9.25,1.32c7.16,1,11.67,3,15,6.06,4.18,4,6.06,9.69,6.06,16.63C126.63,187.79,114,196.38,97.55,196.38Z"/>
      <path class="cls-1" d="M134.93,195.72V117.3h51.66V131H150.24v18.39h30.95V163H150.24v19.06h36.35v13.65Z"/>
      <path class="cls-1" d="M196,195.72V117.3h15.31v64.77H246.9v13.65Z"/>
      <path class="cls-1" d="M254.31,195.72V117.3H306V131H269.62v18.39h30.95V163H269.62v19.06H306v13.65Z"/>
      <path class="cls-1" d="M340,196.38c-11.89,0-20.93-2.53-28.64-10.35l9.92-9.91c4.95,4.95,11.67,6.61,18.94,6.61,9,0,13.88-3.42,13.88-9.7a8.72,8.72,0,0,0-2.42-6.6c-1.54-1.44-3.31-2.21-6.94-2.76l-9.47-1.32c-6.72-1-11.68-3.09-15.2-6.5-3.75-3.75-5.62-8.81-5.62-15.42,0-14,10.35-23.79,27.31-23.79,10.8,0,18.62,2.64,25.34,9.14l-9.69,9.58c-5-4.73-10.91-5.39-16.09-5.39-8.15,0-12.11,4.51-12.11,9.91a7.6,7.6,0,0,0,2.31,5.62,13.5,13.5,0,0,0,7.27,3.08L348,149.9c7.16,1,11.68,3,15,6.06,4.19,4,6.06,9.69,6.06,16.63C369.06,187.79,356.39,196.38,340,196.38Z"/>
      <path class="cls-1" d="M401.26,196.38c-11.9,0-20.93-2.53-28.64-10.35l9.91-9.91c5,4.95,11.68,6.61,19,6.61,9,0,13.88-3.42,13.88-9.7a8.73,8.73,0,0,0-2.43-6.6c-1.54-1.44-3.3-2.21-6.94-2.76l-9.47-1.32c-6.72-1-11.68-3.09-15.2-6.5-3.75-3.75-5.62-8.81-5.62-15.42,0-14,10.36-23.79,27.32-23.79,10.79,0,18.61,2.64,25.33,9.14l-9.69,9.58c-5-4.73-10.91-5.39-16.08-5.39-8.15,0-12.12,4.51-12.12,9.91a7.57,7.57,0,0,0,2.32,5.62,13.47,13.47,0,0,0,7.26,3.08l9.26,1.32c7.16,1,11.67,3,15,6.06,4.18,4,6.05,9.69,6.05,16.63C430.33,187.79,417.67,196.38,401.26,196.38Z"/>
      <path class="cls-1" d="M31.31,303.48c-13.3,0-22.17-3.16-29.66-10.57L-.08,291.2l12.64-12.63,1.7,1.63c4,3.87,9.7,5.74,17.27,5.74,7.92,0,11.94-2.6,11.94-7.75A6.87,6.87,0,0,0,41.66,273c-1.29-1.2-2.84-1.79-5.91-2.25l-9.44-1.32c-7.17-1.06-12.49-3.36-16.28-7-4.18-4.19-6.21-9.69-6.21-16.82,0-15.63,11.48-25.73,29.26-25.73,11.33,0,19.44,2.87,26.3,9.32l1.82,1.72L48.77,243.19l-1.69-1.55c-4.43-4-9.79-4.58-14.45-4.58-6.37,0-10.17,3-10.17,8a5.68,5.68,0,0,0,1.69,4.2,11.78,11.78,0,0,0,6.21,2.58l9.27,1.32c7.31,1,12.25,3,16,6.56,4.44,4.2,6.68,10.27,6.68,18.05C62.33,293.38,50.15,303.48,31.31,303.48ZM2.76,291.19l.3.3c7.08,7,15.53,10,28.25,10,17.63,0,29-9.31,29-23.73,0-7.21-2-12.8-6-16.59-3.45-3.22-8.05-5.09-14.93-6l-9.26-1.32a13.68,13.68,0,0,1-7.3-3.1A7.65,7.65,0,0,1,20.46,245c0-6.06,4.78-10,12.17-10,5,0,10.86.61,15.79,5.1l.3.27,9.6-9.5-.31-.29c-6.46-6.08-14.15-8.78-24.93-8.78-16.56,0-27.26,9.31-27.26,23.73,0,6.58,1.84,11.61,5.62,15.39,3.46,3.36,8.42,5.47,15.16,6.47L36,268.77c3.53.53,5.36,1.25,7,2.76a8.84,8.84,0,0,1,2.44,6.66c0,6.29-4.95,9.75-13.94,9.75-8.11,0-14.22-2.06-18.65-6.29l-.29-.28Z"/>
      <path class="cls-1" d="M102.71,302.82H83.52V238.05H63V220.52H123.2v17.53H102.71Zm-17.19-2h15.19V236.05H121.2V222.52H65v13.53H85.52Z"/>
      <path class="cls-1" d="M145.91,302.82H126.72v-82.3h19.19Zm-17.19-2h15.19v-78.3H128.72Z"/>
      <path class="cls-1" d="M183.05,303.48a30.75,30.75,0,0,1-22.52-9.16,24.65,24.65,0,0,1-6.92-12.78c-.9-4.5-1.36-11.19-1.36-19.87s.46-15.37,1.36-19.88A24.11,24.11,0,0,1,160.53,229a30.75,30.75,0,0,1,22.52-9.16c16.29,0,27.76,9.65,30.67,25.81l.51,2.85H194.88l-.47-1.81c-1.65-6.27-5.33-9.32-11.25-9.32-3.63,0-6.42,1.13-8.3,3.37-2.7,2.89-3.42,5.81-3.42,20.91s.71,18,3.32,20.79c2,2.36,4.72,3.48,8.4,3.48,5.92,0,9.6-3,11.25-9.32l.47-1.8h19.35l-.51,2.84C210.81,293.83,199.34,303.48,183.05,303.48Zm0-81.62a28.84,28.84,0,0,0-21.11,8.57,22.28,22.28,0,0,0-6.37,11.75c-.87,4.38-1.32,10.94-1.32,19.49s.45,15.1,1.32,19.48a22.76,22.76,0,0,0,6.37,11.76,28.84,28.84,0,0,0,21.11,8.57c15.24,0,26-9,28.7-24.17l.09-.49H196.43l-.08.31c-1.86,7.07-6.42,10.81-13.19,10.81-4.25,0-7.58-1.39-9.9-4.15-3-3.2-3.82-6.32-3.82-22.12s.84-18.94,3.92-22.24c2.24-2.67,5.55-4,9.8-4,6.77,0,11.33,3.74,13.19,10.82l.08.31h15.41l-.09-.49C209,230.89,198.29,221.86,183.05,221.86Z"/>
      <path class="cls-1" d="M286.57,302.82H264.2l-19.34-34.23L237,278v24.81H217.79v-82.3H237v30.61l24.78-30.61h23.68l-27.77,33.3Zm-21.2-2h17.7l-27.84-47.2,25.94-31.1H262.71L235,256.77V222.52H219.79v78.3H235V277.29l10.2-12.2Z"/>
      <path class="cls-1" d="M343.05,302.82H287.51v-82.3h55.54v17.53H306.7v14.52h30.95v17.54H306.7v15.17h36.35Zm-53.54-2h51.54V287.28H304.7V268.11h30.95V254.57H304.7V236.05h36.35V222.52H289.51Z"/>
      <path class="cls-1" d="M413.08,302.82H391l-15.31-31.28h-7.86v31.28H348.59v-82.3h32.67c16.12,0,27.38,10.67,27.38,25.95,0,9.68-5,17.67-13.56,21.59Zm-20.88-2h17.6l-17.49-33.77,1-.41c8.34-3.42,13.32-11,13.32-20.17,0-14.1-10.43-23.95-25.38-23.95H350.59v78.3h15.19V269.54h11.11Zm-11.93-43.48H365.32V235.59h14.95c7,0,11.65,4.37,11.65,10.88S387.24,257.34,380.27,257.34Zm-12.95-2h12.95c5.86,0,9.65-3.48,9.65-8.87s-3.88-8.88-9.65-8.88H367.32Z"/>
      <path class="cls-1" d="M440.75,303.48c-13.3,0-22.17-3.16-29.66-10.57l-1.73-1.71L422,278.57l1.71,1.63c4,3.87,9.69,5.74,17.27,5.74,7.92,0,11.94-2.6,11.94-7.75A6.91,6.91,0,0,0,451.1,273c-1.29-1.2-2.84-1.79-5.91-2.25l-9.44-1.32c-7.17-1.06-12.49-3.36-16.28-7-4.19-4.19-6.21-9.69-6.21-16.82,0-15.63,11.48-25.73,29.25-25.73,11.34,0,19.45,2.87,26.31,9.32l1.82,1.72-12.43,12.29-1.7-1.55c-4.42-4-9.78-4.58-14.44-4.58-6.37,0-10.18,3-10.18,8a5.69,5.69,0,0,0,1.7,4.2,11.78,11.78,0,0,0,6.21,2.58l9.27,1.32c7.3,1,12.24,3,16,6.56,4.43,4.19,6.68,10.27,6.68,18.05C471.77,293.38,459.59,303.48,440.75,303.48ZM412.2,291.19l.29.3c7.09,7,15.54,10,28.26,10,17.63,0,29-9.31,29-23.73,0-7.21-2-12.8-6-16.59-3.45-3.22-8.06-5.09-14.93-6l-9.27-1.32a13.68,13.68,0,0,1-7.29-3.1,7.62,7.62,0,0,1-2.34-5.66c0-6.06,4.78-10,12.18-10,5,0,10.86.61,15.79,5.1l.3.27,9.6-9.5-.31-.29c-6.46-6.07-14.15-8.78-24.94-8.78-16.56,0-27.25,9.31-27.25,23.73,0,6.58,1.83,11.61,5.61,15.39,3.47,3.36,8.43,5.47,15.16,6.47l9.45,1.32c3.53.53,5.36,1.25,7,2.76a8.84,8.84,0,0,1,2.45,6.66c0,6.29-5,9.75-13.94,9.75-8.12,0-14.22-2.06-18.65-6.29l-.3-.29Z"/>
      <g>
        <path class="cls-1" d="M456.65,155.86a20.66,20.66,0,1,1,20.65-20.65A20.68,20.68,0,0,1,456.65,155.86Zm0-37a16.3,16.3,0,1,0,16.29,16.3A16.32,16.32,0,0,0,456.65,118.91Z"/>
        <path class="cls-1" d="M456.65,147.06c-4.93,0-8.51-3.42-8.51-8.12V124h4.91v14.82c0,2.41,1.35,3.84,3.6,3.84s3.62-1.47,3.62-3.84V124h4.88v15C465.15,143.64,461.57,147.06,456.65,147.06Z"/>
      </g>
    </g>
  </g>
</svg>
