<svg xmlns="http://www.w3.org/2000/svg" viewBox="0 0 631.5 312.51">
  <defs>
    <style>
      .cls-1 {
        fill: #fff;
      }
    </style>
  </defs>
  <g id="Layer_1" data-name="Layer 1">
    <g>
      <path class="cls-1" d="M33.94,79.75a28.78,28.78,0,0,1-21.15-8.59A22.7,22.7,0,0,1,6.4,59.37q-1.32-6.61-1.32-19.5T6.4,20.38A22.25,22.25,0,0,1,12.79,8.59,28.74,28.74,0,0,1,33.94,0C49,0,60.15,8.81,62.8,24.78H47.27c-1.65-6.72-5.84-11.12-13.22-11.12-4.19,0-7.49,1.32-9.8,4.07-3.2,3.42-3.86,6.94-3.86,22.14S21.05,58.6,24.25,62c2.31,2.76,5.61,4.08,9.8,4.08,7.38,0,11.57-4.41,13.22-11.13H62.8C60.15,70.94,48.92,79.75,33.94,79.75Z"/>
      <path class="cls-1" d="M119.42,71.16a28.36,28.36,0,0,1-21.14,8.59c-8.93,0-15.76-3.09-21.26-8.59-7.93-7.94-7.71-17.74-7.71-31.29S69.09,16.52,77,8.59C82.52,3.09,89.35,0,98.28,0a28.36,28.36,0,0,1,21.14,8.59c7.93,7.93,7.83,17.74,7.83,31.28S127.35,63.22,119.42,71.16ZM108.08,17.84a12.73,12.73,0,0,0-9.8-4.18,13,13,0,0,0-9.92,4.18c-3,3.31-3.74,6.94-3.74,22s.77,18.73,3.74,22a13,13,0,0,0,9.92,4.19,12.71,12.71,0,0,0,9.8-4.19c3-3.3,3.85-6.94,3.85-22S111.05,21.15,108.08,17.84Z"/>
      <path class="cls-1" d="M193.18,79.08V33.38l-15,29.73H167.84L152.75,33.38v45.7H137.44V.66h15.09L173,43.07,193.4.66h15.09V79.08Z"/>
      <path class="cls-1" d="M251.47,49.57H236.38V79.08H221.07V.66h30.4c16.19,0,25.88,11.13,25.88,24.45S267.66,49.57,251.47,49.57Zm-.77-35.25H236.38V35.8H250.7c6.94,0,11.34-4.3,11.34-10.69S257.64,14.32,250.7,14.32Z"/>
      <path class="cls-1" d="M285,79.08V.66h15.31V65.43h35.58V79.08Z"/>
      <path class="cls-1" d="M343.32,79.08V.66H395V14.32H358.63V32.71h30.95V46.37H358.63V65.43H395V79.08Z"/>
      <path class="cls-1" d="M436.7,14.32V79.08H421.39V14.32H400.9V.66h56.29V14.32Z"/>
      <path class="cls-1" d="M464.6,79.08V.66h51.66V14.32H479.91V32.71h31V46.37h-31V65.43h36.35V79.08Z"/>
      <path class="cls-1" d="M525.68,79.08V.66H541V65.43h35.58V79.08Z"/>
      <path class="cls-1" d="M605.77,46.92V79.08h-15.2V46.92L567,.66h16.63l14.65,31.61L612.71.66h16.63Z"/>
      <rect class="cls-1" x="6.51" y="88.76" width="599.5" height="4.78"/>
      <path class="cls-1" d="M35.37,196.38c-16.08,0-28.86-10.9-28.86-27.53V117.3H21.82v51c0,9,5.29,14.43,13.55,14.43S49,177.33,49,168.3v-51h15.2v51.55C64.23,185.48,51.45,196.38,35.37,196.38Z"/>
      <path class="cls-1" d="M97.55,196.38c-11.9,0-20.93-2.53-28.64-10.35l9.91-9.91c5,4.95,11.68,6.61,19,6.61,9,0,13.88-3.42,13.88-9.7a8.72,8.72,0,0,0-2.42-6.6c-1.55-1.44-3.31-2.21-6.94-2.76l-9.48-1.32c-6.72-1-11.67-3.09-15.2-6.5C73.87,152.1,72,147,72,140.43c0-14,10.36-23.79,27.32-23.79,10.79,0,18.62,2.64,25.33,9.14L115,135.36c-5-4.73-10.9-5.39-16.08-5.39-8.15,0-12.11,4.51-12.11,9.91a7.56,7.56,0,0,0,2.31,5.62,13.47,13.47,0,0,0,7.27,3.08l9.25,1.32c7.16,1,11.67,3,15,6.06,4.18,4,6.06,9.69,6.06,16.63C126.63,187.79,114,196.38,97.55,196.38Z"/>
      <path class="cls-1" d="M134.93,195.72V117.3h51.66V131H150.24v18.39h30.95V163H150.24v19.06h36.35v13.65Z"/>
      <path class="cls-1" d="M196,195.72V117.3h15.31v64.77H246.9v13.65Z"/>
      <path class="cls-1" d="M254.31,195.72V117.3H306V131H269.62v18.39h30.95V163H269.62v19.06H306v13.65Z"/>
      <path class="cls-1" d="M340,196.38c-11.89,0-20.93-2.53-28.64-10.35l9.92-9.91c4.95,4.95,11.67,6.61,18.94,6.61,9,0,13.88-3.42,13.88-9.7a8.72,8.72,0,0,0-2.42-6.6c-1.54-1.44-3.31-2.21-6.94-2.76l-9.47-1.32c-6.72-1-11.68-3.09-15.2-6.5-3.75-3.75-5.62-8.81-5.62-15.42,0-14,10.35-23.79,27.31-23.79,10.8,0,18.62,2.64,25.34,9.14l-9.69,9.58c-5-4.73-10.91-5.39-16.09-5.39-8.15,0-12.11,4.51-12.11,9.91a7.6,7.6,0,0,0,2.31,5.62,13.5,13.5,0,0,0,7.27,3.08L348,149.9c7.16,1,11.68,3,15,6.06,4.19,4,6.06,9.69,6.06,16.63C369.06,187.79,356.39,196.38,340,196.38Z"/>
      <path class="cls-1" d="M401.26,196.38c-11.9,0-20.93-2.53-28.64-10.35l9.91-9.91c5,4.95,11.68,6.61,19,6.61,9,0,13.88-3.42,13.88-9.7a8.73,8.73,0,0,0-2.43-6.6c-1.54-1.44-3.3-2.21-6.94-2.76l-9.47-1.32c-6.72-1-11.68-3.09-15.2-6.5-3.75-3.75-5.62-8.81-5.62-15.42,0-14,10.36-23.79,27.32-23.79,10.79,0,18.61,2.64,25.33,9.14l-9.69,9.58c-5-4.73-10.91-5.39-16.08-5.39-8.15,0-12.12,4.51-12.12,9.91a7.57,7.57,0,0,0,2.32,5.62,13.47,13.47,0,0,0,7.26,3.08l9.26,1.32c7.16,1,11.67,3,15,6.06,4.18,4,6.05,9.69,6.05,16.63C430.33,187.79,417.67,196.38,401.26,196.38Z"/>
      <path class="cls-1" d="M29.31,302c-13.06,0-21.72-3.14-29-10.5L0,291.19,10.59,280.6l.33.33c4.36,4.36,10.44,6.47,18.61,6.47,6.11,0,13.4-1.59,13.4-9.21a8.28,8.28,0,0,0-2.27-6.26c-1.54-1.43-3.28-2.11-6.68-2.63L24.51,268C17.66,267,12.6,264.8,9,261.35c-3.88-3.88-5.76-9-5.76-15.76,0-14.75,10.91-24.27,27.8-24.27,11.11,0,19,2.86,25.66,9.28l.35.34L46.72,241.19l-.33-.32c-4.86-4.64-10.69-5.27-15.76-5.27C22.05,235.6,19,240.47,19,245a7.05,7.05,0,0,0,2.16,5.26,13.05,13.05,0,0,0,7,3l9.25,1.33c7,1,11.7,2.87,15.24,6.18,4.12,3.9,6.21,9.62,6.21,17C58.87,292.27,47,302,29.31,302Zm-28-10.83c7,6.91,15.39,9.88,28,9.88,17.38,0,28.6-9.16,28.6-23.32,0-7.09-2-12.57-5.91-16.28-3.38-3.17-7.92-5-14.71-5.94L28,254.21A14.12,14.12,0,0,1,20.5,251,8,8,0,0,1,18,245c0-6.32,4.94-10.4,12.59-10.4,5.14,0,11.05.63,16.08,5.22l9-8.92c-6.37-6-14-8.67-24.64-8.67-16.31,0-26.84,9.16-26.84,23.32,0,6.46,1.79,11.39,5.47,15.08,3.41,3.3,8.3,5.38,14.94,6.36l9.46,1.33c3.58.54,5.53,1.32,7.2,2.87a9.21,9.21,0,0,1,2.58,7c0,6.56-5.1,10.17-14.36,10.17-8.22,0-14.42-2.1-18.94-6.41Z"/>
      <path class="cls-1" d="M99.25,301.36H83V236.59H62.49V222h57.25v14.61H99.25Zm-15.31-1H98.29V235.63h20.49v-12.7H63.45v12.7H83.94Z"/>
      <path class="cls-1" d="M142.45,301.36H126.18V222h16.27Zm-15.31-1h14.35V222.93H127.14Z"/>
      <path class="cls-1" d="M181.05,302a29.37,29.37,0,0,1-21.49-8.73,23.27,23.27,0,0,1-6.52-12c-.88-4.42-1.33-11-1.33-19.59s.45-15.18,1.33-19.59a22.73,22.73,0,0,1,6.52-12,29.33,29.33,0,0,1,21.49-8.73c15.75,0,26.72,9.41,29.33,25.18l.09.56H194l-.09-.37c-1.73-7-6.14-10.76-12.75-10.76-4.08,0-7.26,1.32-9.44,3.91-3.11,3.33-3.74,7-3.74,21.83s.63,18.5,3.73,21.81c2.19,2.61,5.37,3.92,9.45,3.92,6.61,0,11-3.72,12.75-10.75l.09-.37h16.47l-.09.56C207.77,292.61,196.8,302,181.05,302Zm0-79.75a28.44,28.44,0,0,0-20.81,8.45A21.83,21.83,0,0,0,154,242.26c-.87,4.36-1.31,10.89-1.31,19.41s.44,15.05,1.31,19.4a22.26,22.26,0,0,0,6.26,11.54,28.41,28.41,0,0,0,20.81,8.46c15.06,0,25.6-8.9,28.29-23.83H194.75c-1.91,7.28-6.6,11.12-13.59,11.12-4.38,0-7.8-1.43-10.17-4.24-3.3-3.53-4-7.31-4-22.45s.67-18.92,4-22.47c2.35-2.8,5.77-4.23,10.15-4.23,7,0,11.68,3.85,13.59,11.13h14.59C206.65,231.17,196.11,222.27,181.05,222.27Z"/>
      <path class="cls-1" d="M282,301.36h-19L243.1,266l-9.58,11.45v23.88H217.25V222h16.27v33.27L260.46,222h19.86l-26.43,31.7Zm-18.4-1h16.73l-27.62-46.82,25.56-30.65H260.91l-28.35,35v-35H218.21V300.4h14.35V277.14l10.69-12.78Z"/>
      <path class="cls-1" d="M339.59,301.36H287V222h52.62v14.61H303.24V254h30.95v14.62H303.24v18.1h36.35Zm-51.66-1h50.7V287.7H302.28v-20h31V255h-31V235.63h36.35v-12.7h-50.7Z"/>
      <path class="cls-1" d="M408.68,301.36H389.86l-15.3-31.28H364.32v31.28H348.05V222h31.21c15.26,0,25.92,10.07,25.92,24.49,0,9.67-5.27,17.43-14.12,20.85Zm-18.22-1h16.65l-17.4-33.6.51-.18c8.77-3.18,14-10.71,14-20.15,0-13.86-10.27-23.54-25-23.54H349V300.4h14.36V269.12h11.79Zm-12.19-43.1H363.36V235.63h14.91c6.83,0,11.6,4.46,11.6,10.84S385.1,257.3,378.27,257.3Zm-13.95-1h13.95c6.37,0,10.65-4,10.65-9.87s-4.28-9.88-10.65-9.88H364.32Z"/>
      <path class="cls-1" d="M438.75,302c-13.06,0-21.73-3.14-29-10.5l-.33-.33L420,280.6l.34.33c4.35,4.36,10.44,6.47,18.61,6.47,6.11,0,13.4-1.59,13.4-9.21a8.32,8.32,0,0,0-2.27-6.26c-1.54-1.43-3.29-2.11-6.68-2.63L434,268c-6.85-1-11.91-3.18-15.47-6.63-3.88-3.88-5.76-9-5.76-15.76,0-14.75,10.91-24.27,27.79-24.27,11.12,0,19,2.86,25.67,9.28l.35.34-10.37,10.25-.34-.32c-4.85-4.64-10.69-5.27-15.75-5.27-8.58,0-11.64,4.87-11.64,9.44a7.09,7.09,0,0,0,2.16,5.26,13.12,13.12,0,0,0,7,3l9.26,1.33c7,1,11.69,2.87,15.24,6.18,4.12,3.9,6.21,9.62,6.21,17C468.31,292.27,456.43,302,438.75,302Zm-28-10.83c7,6.91,15.38,9.88,28,9.88,17.37,0,28.6-9.16,28.6-23.32,0-7.09-2-12.57-5.91-16.28-3.39-3.17-7.93-5-14.71-5.94l-9.26-1.32a14.12,14.12,0,0,1-7.53-3.21,8,8,0,0,1-2.46-6c0-6.32,4.94-10.4,12.59-10.4,5.14,0,11.05.63,16.07,5.22l9-8.92c-6.37-6-14-8.67-24.65-8.67-16.3,0-26.84,9.16-26.84,23.32,0,6.46,1.79,11.39,5.48,15.08,3.41,3.3,8.3,5.38,14.93,6.36l9.47,1.33c3.58.54,5.53,1.32,7.2,2.87a9.21,9.21,0,0,1,2.58,7c0,6.56-5.1,10.17-14.36,10.17-8.22,0-14.43-2.1-18.94-6.41Z"/>
      <g>
        <path class="cls-1" d="M456.65,155.86a20.66,20.66,0,1,1,20.65-20.65A20.68,20.68,0,0,1,456.65,155.86Zm0-37a16.3,16.3,0,1,0,16.29,16.3A16.32,16.32,0,0,0,456.65,118.91Z"/>
        <path class="cls-1" d="M456.65,147.06c-4.93,0-8.51-3.42-8.51-8.12V124h4.91v14.82c0,2.41,1.35,3.84,3.6,3.84s3.62-1.47,3.62-3.84V124h4.88v15C465.15,143.64,461.57,147.06,456.65,147.06Z"/>
      </g>
    </g>
  </g>
</svg>
