<svg id="logo-white-500-250" xmlns="http://www.w3.org/2000/svg" viewBox="0 0 500 250">
  <defs>
    <style>
      .cls-1 {
        fill: #fff;
      }
    </style>
  </defs>
  <g>
    <g>
      <path class="cls-1" d="M25.9,63.36A22.87,22.87,0,0,1,9.1,56.54,18.09,18.09,0,0,1,4,47.17,85,85,0,0,1,3,31.68,84.8,84.8,0,0,1,4,16.2,17.74,17.74,0,0,1,9.1,6.83,22.87,22.87,0,0,1,25.9,0c12,0,20.83,7,22.93,19.68H36.49c-1.31-5.33-4.64-8.83-10.5-8.83-3.33,0-5.95,1.05-7.78,3.23-2.54,2.72-3.07,5.52-3.07,17.59s.53,14.88,3.07,17.58C20,51.45,22.66,52.5,26,52.5c5.86,0,9.19-3.5,10.5-8.84H48.83C46.73,56.36,37.8,63.36,25.9,63.36Z"/>
      <path class="cls-1" d="M93.81,56.54A22.54,22.54,0,0,1,77,63.36a22.72,22.72,0,0,1-16.89-6.82C53.83,50.23,54,42.44,54,31.68s-.17-18.55,6.11-24.85A22.8,22.8,0,0,1,77,0,22.54,22.54,0,0,1,93.81,6.83c6.3,6.3,6.22,14.09,6.22,24.85S100.11,50.23,93.81,56.54Zm-9-42.36A10.12,10.12,0,0,0,77,10.86a10.34,10.34,0,0,0-7.88,3.32c-2.39,2.63-3,5.51-3,17.48s.62,14.88,3,17.47A10.31,10.31,0,0,0,77,52.46a10.07,10.07,0,0,0,7.78-3.33c2.38-2.62,3.06-5.51,3.06-17.47S87.16,16.81,84.8,14.18Z"/>
      <path class="cls-1" d="M152.4,62.83V26.53L140.49,50.14h-8.22l-12-23.61v36.3H108.12V.53h12l16.26,33.69L152.58.53h12v62.3Z"/>
      <path class="cls-1" d="M198.71,39.39h-12V62.83H174.56V.53h24.15c12.86,0,20.56,8.84,20.56,19.43S211.57,39.39,198.71,39.39Zm-.61-28H186.72V28.45H198.1c5.51,0,9-3.42,9-8.49S203.61,11.38,198.1,11.38Z"/>
      <path class="cls-1" d="M225.34,62.83V.53H237.5V52h28.27V62.83Z"/>
      <path class="cls-1" d="M271.67,62.83V.53h41.05V11.38H283.83V26h24.59V36.84H283.83V52h28.89V62.83Z"/>
      <path class="cls-1" d="M345.85,11.38V62.83H333.69V11.38H317.41V.53h44.72V11.38Z"/>
      <path class="cls-1" d="M368,62.83V.53h41V11.38H380.18V26H404.8V36.84H380.18V52h28.87V62.83Z"/>
      <path class="cls-1" d="M416.53,62.83V.53H428.7V52H457V62.83Z"/>
      <path class="cls-1" d="M480.16,37.28V62.83H468.08V37.28L449.36.53h13.21l11.64,25.11L485.67.53h13.21Z"/>
      <rect class="cls-1" x="4.11" y="70.52" width="476.23" height="3.8"/>
    </g>
    <g>
      <path class="cls-1" d="M24.94,250c-10.57,0-17.62-2.52-23.57-8.4L0,240.24l10-10,1.35,1.29c3.18,3.08,7.71,4.56,13.72,4.56,6.29,0,9.49-2.06,9.49-6.15a5.5,5.5,0,0,0-1.44-4.13c-1-.95-2.26-1.42-4.7-1.79L21,223C15.27,222.1,11,220.28,8,217.39,4.71,214.06,3.1,209.69,3.1,204c0-12.41,9.12-20.44,23.24-20.44,9,0,15.44,2.28,20.89,7.41l1.45,1.36-9.87,9.75-1.35-1.23c-3.52-3.18-7.77-3.64-11.48-3.64-5.06,0-8.07,2.39-8.07,6.36a4.46,4.46,0,0,0,1.34,3.33A9.33,9.33,0,0,0,24.18,209L31.54,210c5.81.8,9.74,2.38,12.72,5.21,3.52,3.34,5.3,8.16,5.3,14.34C49.58,242,39.9,250,24.94,250ZM2.26,240.23l.23.24c5.63,5.56,12.34,7.94,22.45,7.94,14,0,23-7.39,23-18.85,0-5.72-1.59-10.16-4.76-13.18-2.74-2.55-6.4-4-11.86-4.76L24,210.57a10.93,10.93,0,0,1-5.8-2.46,6.09,6.09,0,0,1-1.87-4.57c0-4.81,3.79-7.94,9.66-7.94,4,0,8.63.48,12.55,4.05l.24.21,7.62-7.55-.24-.23c-5.14-4.83-11.24-7-19.81-7-13.15,0-21.65,7.4-21.65,18.85,0,5.23,1.46,9.22,4.46,12.23,2.75,2.67,6.69,4.34,12,5.14l7.47,1.09c2.81.42,4.26,1,5.56,2.19a7,7,0,0,1,1.94,5.3c0,5-3.93,7.74-11.07,7.74-6.45,0-11.3-1.64-14.82-5l-.23-.22Z"/>
      <path class="cls-1" d="M81.65,249.47H66.41V198H50.11V184.09H97.93V198H81.65ZM68,247.88H80.07V196.43H96.34V185.68H51.7v10.75H68Z"/>
      <path class="cls-1" d="M116,249.47H100.73V184.09H116Zm-13.65-1.59h12.06v-62.2H102.32Z"/>
      <path class="cls-1" d="M145.48,250a24.45,24.45,0,0,1-17.89-7.28,19.53,19.53,0,0,1-5.5-10.15A86.44,86.44,0,0,1,121,216.78,86.52,86.52,0,0,1,122.09,201a19.1,19.1,0,0,1,5.5-10.16,24.45,24.45,0,0,1,17.89-7.28c12.94,0,22.05,7.67,24.36,20.51l.4,2.26H154.87l-.37-1.44c-1.31-5-4.23-7.4-8.94-7.4a8.14,8.14,0,0,0-6.59,2.68c-2.15,2.29-2.72,4.61-2.72,16.61s.57,14.29,2.64,16.51a8.14,8.14,0,0,0,6.67,2.77c4.71,0,7.63-2.39,8.94-7.41l.37-1.43h15.37l-.4,2.26C167.53,242.33,158.42,250,145.48,250Zm0-64.84A22.87,22.87,0,0,0,128.71,192a17.61,17.61,0,0,0-5.06,9.33,85,85,0,0,0-1.05,15.48,85,85,0,0,0,1.05,15.48,18,18,0,0,0,5.06,9.34,23,23,0,0,0,16.77,6.81c12.1,0,20.65-7.15,22.79-19.2l.08-.39H156.1l-.06.24c-1.48,5.62-5.1,8.59-10.48,8.59a9.71,9.71,0,0,1-7.86-3.3c-2.38-2.54-3-5-3-17.57s.67-15,3.12-17.67c1.78-2.12,4.41-3.17,7.78-3.17,5.38,0,9,3,10.48,8.59l.06.25h12.25l-.08-.39c-2.18-12.06-10.69-19.23-22.79-19.23Z"/>
      <path class="cls-1" d="M227.71,249.47H209.94l-15.36-27.19-6.25,7.47v19.71H173.07V184.09h15.26V208.4L208,184.09h18.81l-22.06,26.45Zm-16.84-1.59h14.06l-22.12-37.49,20.61-24.71H208.76l-22,27.21V185.68H174.66v62.2h12.08V229.19l8.11-9.69Z"/>
      <path class="cls-1" d="M272.58,249.47H228.46V184.09h44.12V198H243.7v11.53h24.59v13.94H243.7v12h28.88Zm-42.53-1.59H271V237.13H242.11V221.9H266.7V211.14H242.11V196.43H271V185.68H230.05Z"/>
      <path class="cls-1" d="M328.21,249.47H310.67L298.5,224.62h-6.24v24.85H277V184.09h25.95c12.81,0,21.75,8.48,21.75,20.62a18.23,18.23,0,0,1-10.77,17.15Zm-16.59-1.59h14l-13.89-26.82.79-.33a16.78,16.78,0,0,0,10.58-16c0-11.2-8.28-19-20.16-19H278.57v62.2h12.06V223h8.83Zm-9.48-34.54H290.27V196.06h11.87c5.56,0,9.26,3.48,9.26,8.65S307.68,213.34,302.14,213.34Zm-10.28-1.59h10.28c4.66,0,7.67-2.76,7.67-7s-3.08-7.06-7.67-7.06H291.86Z"/>
      <path class="cls-1" d="M350.19,250c-10.57,0-17.61-2.52-23.56-8.4l-1.38-1.36,10-10,1.36,1.29c3.18,3.08,7.7,4.56,13.72,4.56,6.29,0,9.49-2.06,9.49-6.15a5.55,5.55,0,0,0-1.45-4.13c-1-.95-2.26-1.42-4.7-1.79l-7.49-1c-5.7-.85-9.93-2.67-12.94-5.56-3.33-3.33-4.93-7.7-4.93-13.37,0-12.41,9.12-20.44,23.24-20.44,9,0,15.45,2.28,20.9,7.41l1.44,1.36-9.87,9.77-1.35-1.23c-3.51-3.18-7.77-3.64-11.47-3.64-5.06,0-8.09,2.38-8.09,6.35a4.55,4.55,0,0,0,1.35,3.34,9.33,9.33,0,0,0,4.93,2.05l7.37,1c5.8.79,9.72,2.38,12.71,5.21,3.52,3.33,5.3,8.16,5.3,14.34C374.83,242,365.15,250,350.19,250Zm-22.68-9.77.23.24c5.63,5.56,12.34,7.94,22.45,7.94,14,0,23-7.39,23-18.85,0-5.72-1.58-10.16-4.76-13.18-2.74-2.55-6.4-4-11.86-4.76l-7.37-1.05a10.9,10.9,0,0,1-5.79-2.46,6.11,6.11,0,0,1-1.86-4.5c0-4.81,3.8-7.94,9.68-7.94,4,0,8.63.48,12.54,4.05l.24.21,7.63-7.54-.25-.23c-5.13-4.83-11.24-7-19.81-7-13.16,0-21.65,7.4-21.65,18.85,0,5.23,1.46,9.22,4.46,12.23,2.76,2.67,6.7,4.34,12,5.14l7.51,1c2.8.42,4.26,1,5.56,2.19a7,7,0,0,1,2,5.29c0,5-4,7.74-11.08,7.74-6.45,0-11.29-1.63-14.81-5l-.24-.23Z"/>
    </g>
    <g>
      <path class="cls-1" d="M27,161.44c-12.77,0-22.93-8.66-22.93-21.87V98.62H16.28v40.51c0,7.15,4.2,11.46,10.76,11.46s10.83-4.29,10.83-11.46V98.62H49.94v40.95C50,152.78,39.81,161.44,27,161.44Z"/>
      <path class="cls-1" d="M76.44,161.44c-9.46,0-16.63-2-22.76-8.22l7.88-7.88c4,3.94,9.28,5.25,15.09,5.25,7.15,0,11-2.71,11-7.7a6.93,6.93,0,0,0-1.93-5.24c-1.23-1.15-2.63-1.76-5.51-2.2l-7.53-1c-5.34-.79-9.27-2.45-12.07-5.16-3-3-4.5-7-4.5-12.25,0-11.12,8.23-18.9,21.7-18.9,8.57,0,14.79,2.1,20.12,7.26L90.3,113c-4-3.75-8.66-4.28-12.78-4.28-6.47,0-9.62,3.59-9.62,7.88A6,6,0,0,0,69.74,121a10.74,10.74,0,0,0,5.77,2.45l7.35,1c5.69.8,9.27,2.39,11.92,4.82,3.32,3.18,4.81,7.7,4.81,13.21C99.54,154.61,89.5,161.44,76.44,161.44Z"/>
      <path class="cls-1" d="M106.13,160.91V98.62h41V109.5H118.29v14.61h24.59v10.81H118.29v15.14h28.88v10.85Z"/>
      <path class="cls-1" d="M154.64,160.91V98.62H166.8v51.45h28.28v10.84Z"/>
      <path class="cls-1" d="M201,160.91V98.62H242V109.5h-28.9v14.61h24.59v10.81H213.12v15.14H242v10.85Z"/>
      <path class="cls-1" d="M269,161.44c-9.44,0-16.62-2-22.75-8.22l7.88-7.88c3.93,3.94,9.27,5.25,15,5.25,7.15,0,11-2.71,11-7.7a6.88,6.88,0,0,0-1.92-5.24c-1.22-1.15-2.63-1.76-5.51-2.2l-7.52-1c-5.34-.79-9.28-2.45-12.08-5.16-3-3-4.46-7-4.46-12.25,0-11.12,8.22-18.9,21.69-18.9,8.58,0,14.79,2.1,20.13,7.26l-7.7,7.61c-4-3.75-8.66-4.28-12.78-4.28-6.47,0-9.62,3.59-9.62,7.88A6.05,6.05,0,0,0,262.3,121a10.82,10.82,0,0,0,5.77,2.45l7.32,1c5.69.8,9.28,2.39,11.91,4.82,3.33,3.18,4.82,7.7,4.82,13.21C292.12,154.61,282.05,161.44,269,161.44Z"/>
      <path class="cls-1" d="M317.7,161.44c-9.46,0-16.63-2-22.75-8.22l7.87-7.88c4,3.94,9.28,5.25,15.09,5.25,7.15,0,11-2.71,11-7.7a6.93,6.93,0,0,0-1.93-5.24c-1.23-1.15-2.62-1.76-5.52-2.2l-7.52-1c-5.34-.79-9.28-2.45-12.07-5.16-3-3-4.47-7-4.47-12.25,0-11.12,8.23-18.9,21.71-18.9,8.57,0,14.78,2.1,20.12,7.26l-7.7,7.61c-4-3.75-8.67-4.28-12.77-4.28-6.48,0-9.63,3.59-9.63,7.88A6,6,0,0,0,311,121a10.79,10.79,0,0,0,5.77,2.45l7.35,1c5.69.8,9.27,2.39,11.92,4.82,3.32,3.18,4.81,7.7,4.81,13.21C340.79,154.61,330.73,161.44,317.7,161.44Z"/>
      <g>
        <path class="cls-1" d="M361.7,129.25a16.41,16.41,0,1,1,16.4-16.42v0A16.42,16.42,0,0,1,361.7,129.25Zm0-29.39a12.95,12.95,0,1,0,12.94,13h0A13,13,0,0,0,361.7,99.9Z"/>
        <path class="cls-1" d="M361.7,122.26a6.4,6.4,0,0,1-6.76-6.45V103.94h3.9v11.77a2.87,2.87,0,1,0,5.73,0V103.94h3.88v11.92C368.45,119.54,365.61,122.26,361.7,122.26Z"/>
      </g>
    </g>
  </g>
</svg>
