<svg id="Layer_1" data-name="Layer 1" xmlns="http://www.w3.org/2000/svg" viewBox="0 0 113.39 113.39">
  <defs>
    <style>
      .cls-1 {
        fill: #e2001a;
      }

      .cls-2 {
        fill: #fff;
      }
    </style>
  </defs>
  <path class="cls-1" d="M56.7,111.16a54.47,54.47,0,1,1,54.46-54.47A54.53,54.53,0,0,1,56.7,111.16Z"/>
  <g>
    <path class="cls-2" d="M56.7,113.39a56.7,56.7,0,1,1,56.69-56.7A56.76,56.76,0,0,1,56.7,113.39Zm0-104A47.26,47.26,0,1,0,104,56.69,47.31,47.31,0,0,0,56.7,9.43Z"/>
    <path class="cls-2" d="M56.69,88.64c-13,0-22.51-9-22.51-21.45V26.47h11V66.75C45.17,74.29,49.58,79,56.69,79S68.3,74.18,68.3,66.75V26.47H79.2V67.19C79.2,79.62,69.73,88.64,56.69,88.64Z"/>
  </g>
</svg>
