<?xml version="1.0" encoding="utf-8"?>
<!-- Generator: Adobe Illustrator 25.0.1, SVG Export Plug-In . SVG Version: 6.00 Build 0)  -->
<svg version="1.1" id="Layer_1" xmlns="http://www.w3.org/2000/svg" xmlns:xlink="http://www.w3.org/1999/xlink" x="0px" y="0px"
	 viewBox="0 0 113.4 113.4" style="enable-background:new 0 0 113.4 113.4;" xml:space="preserve">
<style type="text/css">
	.st0{fill:#FFFFFF;}
</style>
<g>
	<path class="st0" d="M56.7,113.4C25.4,113.4,0,88,0,56.7S25.4,0,56.7,0s56.7,25.4,56.7,56.7c0,0,0,0,0,0
		C113.4,88,88,113.4,56.7,113.4z M56.7,9.4C30.6,9.4,9.5,30.6,9.5,56.7c0,26.1,21.2,47.2,47.3,47.2c26.1,0,47.2-21.2,47.2-47.2
		C104,30.6,82.8,9.4,56.7,9.4L56.7,9.4z"/>
	<path class="st0" d="M56.7,88.6c-13,0-22.5-9-22.5-21.4V26.5h11v40.3c0,7.5,4.4,12.2,11.5,12.2s11.6-4.8,11.6-12.2V26.5h10.9v40.7
		C79.2,79.6,69.7,88.6,56.7,88.6z"/>
</g>
</svg>
