<svg id="Layer_1" data-name="Layer 1" xmlns="http://www.w3.org/2000/svg" viewBox="0 0 141.73 141.73">
  <defs>
    <style>
      .cls-1 {
        fill: #fff;
      }
    </style>
  </defs>
  <g>
    <path class="cls-1" d="M70.87,141.73a70.87,70.87,0,1,1,70.86-70.86A71,71,0,0,1,70.87,141.73ZM70.87,15a55.92,55.92,0,1,0,55.91,55.92A56,56,0,0,0,70.87,15Z"/>
    <path class="cls-1" d="M70.86,111.55c-16.9,0-29.17-11.73-29.17-27.88V32.28H58.53V83.13c0,8.26,4.62,13.19,12.33,13.19s12.44-5,12.44-13.19V32.28H100V83.67C100,99.82,87.76,111.55,70.86,111.55Z"/>
  </g>
</svg>
